<?xml version="1.0" encoding="UTF-8" standalone="no"?>
<!-- Created with Inkscape (http://www.inkscape.org/) -->

<svg
   xmlns:dc="http://purl.org/dc/elements/1.1/"
   xmlns:cc="http://creativecommons.org/ns#"
   xmlns:rdf="http://www.w3.org/1999/02/22-rdf-syntax-ns#"
   xmlns:svg="http://www.w3.org/2000/svg"
   xmlns="http://www.w3.org/2000/svg"
   xmlns:sodipodi="http://sodipodi.sourceforge.net/DTD/sodipodi-0.dtd"
   xmlns:inkscape="http://www.inkscape.org/namespaces/inkscape"
   width="520"
   height="145"
   viewBox="0 0 137.58333 38.364586"
   version="1.1"
   id="svg8"
   inkscape:version="0.92.3 (2405546, 2018-03-11)"
   sodipodi:docname="sojuz_project_horizontal_withe.svg"
   inkscape:export-filename="/home/gd/Obrazy/sojuz.svg.png"
   inkscape:export-xdpi="96"
   inkscape:export-ydpi="96">
  <defs
     id="defs2" />
  <sodipodi:namedview
     id="base"
     pagecolor="#ffffff"
     bordercolor="#666666"
     borderopacity="1.0"
     inkscape:pageopacity="0.0"
     inkscape:pageshadow="2"
     inkscape:zoom="1.4"
     inkscape:cx="249.52847"
     inkscape:cy="73.077224"
     inkscape:document-units="mm"
     inkscape:current-layer="layer1"
     showgrid="false"
     inkscape:window-width="1600"
     inkscape:window-height="845"
     inkscape:window-x="0"
     inkscape:window-y="0"
     inkscape:window-maximized="1"
     units="px"
     showguides="true"
     inkscape:guide-bbox="true" />
  <metadata
     id="metadata5">
    <rdf:RDF>
      <cc:Work
         rdf:about="">
        <dc:format>image/svg+xml</dc:format>
        <dc:type
           rdf:resource="http://purl.org/dc/dcmitype/StillImage" />
        <dc:title></dc:title>
      </cc:Work>
    </rdf:RDF>
  </metadata>
  <g
     inkscape:label="Layer 1"
     inkscape:groupmode="layer"
     id="layer1"
     transform="translate(0,-258.63538)">
    <path
       style="fill:#ffffff;fill-opacity:1;stroke:none;stroke-width:1px;stroke-linecap:butt;stroke-linejoin:miter;stroke-opacity:1"
       d="M 322.14258,873.5918 309.46094,891.36523 358.91016,910.75 370,893.5918 Z m -204.93164,3.85156 c -4.90945,0.12295 -9.90144,1.00297 -14.875,2.80859 l -6.404299,2.32617 c -1.992927,11.92048 -3.429279,25.23105 -6.027344,35.63868 9.688008,12.98686 0.192376,21.33643 -1.894531,26.39062 1.821844,-5.18991 8.096123,-17.47618 -1.136719,-26.13867 4.714897,-9.13794 6.135591,-23.7662 9.058594,-35.89063 0.979908,-0.35572 -10.644826,-9.74631 -19.503907,16.3711 l -2.767578,-0.53711 -4.642578,-4.28516 c -3.046741,-2.28506 -12.037978,2.64521 -6.160156,8.75 l 3.214844,-0.35742 1.695312,5.08985 3.304688,-2.23243 2.58789,1.07227 c -3.098667,12.46468 -13.550585,36.36739 10.625,40 22.976344,23.90984 47.981084,25.81126 74.287114,13.57031 10.25863,29.0714 39.59856,39.69706 69.64257,49.64257 l -13.93554,19.6035 49.25,17.8106 12.24218,-18.7539 8.08204,0.6328 0.3789,10.8574 5.8086,0.7578 2.52343,-3.4082 10.10157,10.8594 7.32421,-3.0313 17.29883,13.3848 0.88477,-1.2637 -17.29883,-13.7617 c 23.40448,-34.7201 31.68736,-60.7992 31.56641,-82.07616 l 17.92968,-15.02539 2.27344,4.04101 1.76758,-1.89453 7.82812,-1.13672 -6.6914,-4.67187 -0.12695,-2.52539 -2.77735,1.13672 -0.12695,-2.9043 2.02148,-0.12695 v -1.64063 l -4.54687,-0.50586 -0.75586,2.40039 h 1.64062 l -0.25195,2.39844 -18.125,14.20117 -10.35742,-2.85742 -52.83399,-18.53711 -2.52343,3.53711 C 244.47851,925.21032 216.48802,903.61428 173.57227,915.37695 167.82344,898.20883 143.72196,876.7794 117.21094,877.44336 Z m 190.47265,16.41406 -13.28515,18.61914 50.84179,19.42188 11.78125,-18.22852 z m -15.41211,21.59961 -10.86132,15.22266 52.11914,19.33593 9.16797,-14.18164 z m -20.66406,35.99219 16.96485,6.96289 c -4.7196,15.21639 -8.48442,29.7516 -20,49.82229 l 4.10546,2.1426 c -3.14158,5.483 -5.52228,7.9283 -8.21289,11.6074 1.72619,-3.5714 4.36149,-6.9615 5.17774,-10.7149 l -3.21485,-2.1425 c 6.98119,-14.80073 14.33107,-29.43775 18.39454,-45.5352 -1.90534,-1.17822 -2.44128,-3.17905 -2.67969,-5.35742 z m -58.94336,80.09178 -13.12695,18.4649 49.62109,19.0839 11.9961,-18.3769 c -10.90165,-4.3356 -41.2882,-16.3303 -48.49024,-19.1719 z m -15.13086,21.2832 -11.46093,16.125 50.35546,19.6426 10.96875,-16.8008 z"
       transform="matrix(0.16565296,0,0,0.17314345,-9.7615973,108.25085)"
       id="path966"
       inkscape:connector-curvature="0" />
    <text
       xml:space="preserve"
       style="font-style:normal;font-variant:normal;font-weight:normal;font-stretch:normal;font-size:40px;line-height:1.25;font-family:Kroftsmann;-inkscape-font-specification:Kroftsmann;letter-spacing:0px;word-spacing:0px;fill:#000000;fill-opacity:1;stroke:none"
       x="77.781746"
       y="776.03735"
       id="text992"
       transform="scale(0.26458333)"><tspan
         sodipodi:role="line"
         id="tspan990"
         x="77.781746"
         y="813.64606" /></text>
    <g
       aria-label="sojuz"
       transform="matrix(0.87454771,0,0,0.914093,-40.096072,-448.07205)"
       style="font-style:normal;font-variant:normal;font-weight:normal;font-stretch:normal;font-size:40px;line-height:1.25;font-family:Kroftsmann;-inkscape-font-specification:Kroftsmann;letter-spacing:0px;word-spacing:0px;fill:#ffffff;fill-opacity:1;stroke:none"
       id="text852">
      <path
         d="m 124.50981,785.00101 -7.46666,-2.29334 1.04,-2.29333 h 10.34666 l -1.86666,-6.77333 h -12.88 l -3.92,9.06666 3.92,6.21334 7.46666,2.29333 -1.04,2.29333 h -10.34666 l 1.86666,6.77334 h 12.88 l 3.92,-9.06667 z"
         id="path2181"
         inkscape:connector-curvature="0"
         style="fill:#ffffff" />
      <path
         d="m 129.76315,778.70767 3.41333,-5.06666 h 10.18667 l 3.41333,4.56 v 17.01333 l -3.41333,5.06667 h -10.18667 l -3.41333,-4.56 z m 10.16,15.38667 v -14.26667 h -3.97334 v 14.26667 z"
         id="path2183"
         inkscape:connector-curvature="0"
         style="fill:#ffffff" />
      <path
         d="m 158.86919,773.64101 h 6.26667 v 22.08 l -2.85334,4.56 h -14.16 v -5.68 h 10.74667 z"
         id="path2185"
         inkscape:connector-curvature="0"
         style="fill:#ffffff" />
      <path
         d="m 177.22856,773.66767 h 6.26667 v 26.64 h -13.6 l -3.41333,-4.56 v -22.08 h 6.26666 v 20.96 h 4.48 z"
         id="path2187"
         inkscape:connector-curvature="0"
         style="fill:#ffffff" />
      <path
         d="m 201.58794,793.50767 v 6.77334 h -16.74667 v -7.89334 l 8.50667,-13.06666 h -8.50667 v -5.68 h 16.48 v 6.21333 l -9.70666,13.65333 z"
         id="path2189"
         inkscape:connector-curvature="0"
         style="fill:#ffffff" />
    </g>
    <g
       aria-label="project"
       transform="matrix(0.37808184,0,0,0.39517794,15.712899,-19.99754)"
       style="font-style:normal;font-variant:normal;font-weight:normal;font-stretch:normal;font-size:40px;line-height:1.25;font-family:Kroftsmann;-inkscape-font-specification:Kroftsmann;letter-spacing:0px;word-spacing:0px;fill:#ffffff;fill-opacity:1;stroke:none"
       id="text852-3">
      <path
         d="m 126.77648,786.70767 v -8.50666 l -3.44,-4.56 h -13.57333 v 26.64 h 6.18666 v -8.50667 h 7.38667 z m -6.85333,-1.12 h -3.97334 v -6.26666 h 3.97334 z"
         style="letter-spacing:14.50817776px;fill:#ffffff"
         id="path2192"
         inkscape:connector-curvature="0" />
      <path
         d="m 156.20404,790.06767 3.44,-3.36 v -8.50666 l -3.44,-4.56 H 142.6307 v 26.64 h 6.18667 v -8.50667 h 1.14667 l 4.53333,8.50667 h 7.38667 z m -3.41334,-4.48 h -3.97333 v -6.26666 h 3.97333 z"
         style="letter-spacing:14.50817776px;fill:#ffffff"
         id="path2194"
         inkscape:connector-curvature="0" />
      <path
         d="m 177.76388,778.70767 3.41333,-5.06666 h 10.18667 l 3.41333,4.56 v 17.01333 l -3.41333,5.06667 h -10.18667 l -3.41333,-4.56 z m 10.16,15.38667 v -14.26667 h -3.97333 v 14.26667 z"
         style="letter-spacing:14.50817776px;fill:#ffffff"
         id="path2196"
         inkscape:connector-curvature="0" />
      <path
         d="m 221.3781,773.64101 h 6.26667 v 22.08 l -2.85334,4.56 h -14.16 v -5.68 h 10.74667 z"
         style="letter-spacing:14.50817776px;fill:#ffffff"
         id="path2198"
         inkscape:connector-curvature="0" />
      <path
         d="m 243.49899,773.66767 h 14.16 l -0.93334,5.68 h -7.04 v 3.94667 h 7.97334 l -0.93334,5.65333 h -7.04 v 5.68 h 7.97334 l -0.93334,5.68 h -13.22666 z"
         style="letter-spacing:14.50817776px;fill:#ffffff"
         id="path2200"
         inkscape:connector-curvature="0" />
      <path
         d="m 273.47592,778.20101 3.41333,-4.56 h 12.45333 l -0.93333,5.68 h -7.57333 v 14.77333 h 8.50666 l -0.93333,6.18667 h -11.52 l -3.41333,-5.06667 z"
         style="letter-spacing:14.50817776px;fill:#ffffff"
         id="path2202"
         inkscape:connector-curvature="0" />
      <path
         d="m 305.1716,773.64101 h 16 v 5.68 h -4.58667 v 20.96 h -6.26667 v -20.96 h -5.14666 z"
         style="letter-spacing:14.50817776px;fill:#ffffff"
         id="path2204"
         inkscape:connector-curvature="0" />
    </g>
  </g>
</svg>
